<svg width="14" height="14" viewBox="0 0 14 14" fill="none" xmlns="http://www.w3.org/2000/svg">
<path d="M12.2137 3.71739L10.2827 1.78635C10.0694 1.57306 9.72357 1.57306 9.51028 1.78635L6.80683 4.4898C6.59353 4.7031 6.59353 5.04892 6.80683 5.26221L8.73786 7.19325C8.95116 7.40655 9.29698 7.40655 9.51028 7.19325L12.2137 4.4898C12.427 4.2765 12.427 3.93068 12.2137 3.71739Z" stroke="#333333" stroke-linejoin="round"/>
<path d="M7.19371 8.7379L5.26267 6.80686C5.04938 6.59356 4.70355 6.59356 4.49026 6.80686L1.78681 9.51031C1.57351 9.72361 1.57351 10.0694 1.78681 10.2827L3.71784 12.2138C3.93114 12.4271 4.27696 12.4271 4.49026 12.2138L7.19371 9.51031C7.407 9.29701 7.407 8.95119 7.19371 8.7379Z" stroke="#333333" stroke-linejoin="round"/>
<path d="M8.93142 5.06909L5.06934 8.93115" stroke="#333333" stroke-linecap="round" stroke-linejoin="round"/>
</svg>
