<svg width="16" height="16" viewBox="0 0 16 16" fill="none" xmlns="http://www.w3.org/2000/svg">
<path d="M5.8667 8.00049H13.8667" stroke="#333333" stroke-width="1.25" stroke-linecap="round" stroke-linejoin="round"/>
<path d="M5.8667 12.6665H13.8667" stroke="#333333" stroke-width="1.25" stroke-linecap="round" stroke-linejoin="round"/>
<path d="M5.8667 3.3335H13.8667" stroke="#333333" stroke-width="1.25" stroke-linecap="round" stroke-linejoin="round"/>
<path d="M3.30759 1.94429C3.21159 2.04429 3.09159 2.13629 2.94759 2.22429C2.80359 2.30429 2.66759 2.36029 2.53959 2.39229V2.85629C2.80359 2.78029 3.01959 2.66429 3.19159 2.50829V4.80029H3.65959V1.94429H3.30759Z" fill="black"/>
<path d="M3.30759 1.94429V1.84429H3.26497L3.23545 1.87504L3.30759 1.94429ZM2.94759 2.22429L2.9962 2.31178L2.99973 2.30962L2.94759 2.22429ZM2.53959 2.39229L2.51534 2.29528L2.43959 2.31421V2.39229H2.53959ZM2.53959 2.85629H2.43959V2.98914L2.56725 2.95239L2.53959 2.85629ZM3.19159 2.50829H3.29159V2.28259L3.12441 2.43422L3.19159 2.50829ZM3.19159 4.80029H3.09159V4.90029H3.19159V4.80029ZM3.65959 4.80029V4.90029H3.75959V4.80029H3.65959ZM3.65959 1.94429H3.75959V1.84429H3.65959V1.94429ZM3.23545 1.87504C3.14695 1.96723 3.03431 2.0541 2.89544 2.13896L2.99973 2.30962C3.14887 2.21848 3.27623 2.12135 3.37973 2.01355L3.23545 1.87504ZM2.89903 2.13688C2.76087 2.21363 2.63305 2.26585 2.51534 2.29528L2.56384 2.48931C2.70213 2.45474 2.84631 2.39495 2.99615 2.31171L2.89903 2.13688ZM2.43959 2.39229V2.85629H2.63959V2.39229H2.43959ZM2.56725 2.95239C2.84354 2.87285 3.07374 2.75018 3.25877 2.58236L3.12441 2.43422C2.96544 2.5784 2.76364 2.68773 2.51193 2.7602L2.56725 2.95239ZM3.09159 2.50829V4.80029H3.29159V2.50829H3.09159ZM3.19159 4.90029H3.65959V4.70029H3.19159V4.90029ZM3.75959 4.80029V1.94429H3.55959V4.80029H3.75959ZM3.65959 1.84429H3.30759V2.04429H3.65959V1.84429Z" fill="black"/>
<path d="M2.84463 6.6881C2.53663 6.6881 2.28863 6.7921 2.10063 7.0001C1.91663 7.1961 1.82463 7.4521 1.82063 7.7721H2.28863C2.29663 7.5481 2.34463 7.3761 2.43263 7.2641C2.52063 7.1441 2.65263 7.0841 2.82863 7.0841C2.99263 7.0841 3.11663 7.1201 3.20063 7.1961C3.28063 7.2721 3.32463 7.3881 3.32463 7.5441C3.32463 7.7041 3.26063 7.8561 3.13663 7.9961C3.05663 8.0801 2.92863 8.1881 2.74463 8.3161C2.41263 8.5441 2.19263 8.7201 2.08863 8.8401C1.89663 9.0561 1.80463 9.3081 1.80463 9.6001H3.79663V9.1881H2.38863C2.45263 9.0441 2.62863 8.8761 2.92063 8.6841C3.20063 8.4961 3.40063 8.3441 3.51263 8.2241C3.69664 8.0201 3.79263 7.7961 3.79263 7.5481C3.79263 7.2921 3.70463 7.0881 3.52863 6.9281C3.34863 6.7681 3.12063 6.6881 2.84463 6.6881Z" fill="black"/>
<path d="M2.10063 7.0001L2.17356 7.06855L2.17482 7.06715L2.10063 7.0001ZM1.82063 7.7721L1.72064 7.77085L1.71938 7.8721H1.82063V7.7721ZM2.28863 7.7721V7.8721H2.38513L2.38857 7.77567L2.28863 7.7721ZM2.43263 7.2641L2.51131 7.32591L2.51328 7.32323L2.43263 7.2641ZM3.20063 7.1961L3.26953 7.12358L3.26773 7.12194L3.20063 7.1961ZM3.13663 7.9961L3.2091 8.06511L3.21149 8.0624L3.13663 7.9961ZM2.74463 8.3161L2.80125 8.39853L2.80174 8.39819L2.74463 8.3161ZM2.08863 8.8401L2.16338 8.90654L2.1642 8.90559L2.08863 8.8401ZM1.80463 9.6001H1.70463V9.7001H1.80463V9.6001ZM3.79663 9.6001V9.7001H3.89663V9.6001H3.79663ZM3.79663 9.1881H3.89663V9.0881H3.79663V9.1881ZM2.38863 9.1881L2.29725 9.14748L2.23476 9.2881H2.38863V9.1881ZM2.92063 8.6841L2.97558 8.76766L2.97638 8.76712L2.92063 8.6841ZM3.51263 8.2241L3.58575 8.29234L3.58689 8.29107L3.51263 8.2241ZM3.52863 6.9281L3.59591 6.8541L3.59507 6.85336L3.52863 6.9281ZM2.84463 6.5881C2.51147 6.5881 2.2354 6.70186 2.02645 6.93304L2.17482 7.06715C2.34187 6.88233 2.5618 6.7881 2.84463 6.7881V6.5881ZM2.02773 6.93165C1.82326 7.14946 1.72489 7.43123 1.72064 7.77085L1.92063 7.77335C1.92438 7.47296 2.01001 7.24274 2.17354 7.06854L2.02773 6.93165ZM1.82063 7.8721H2.28863V7.6721H1.82063V7.8721ZM2.38857 7.77567C2.39624 7.56102 2.44214 7.41386 2.51127 7.32588L2.354 7.20232C2.24713 7.33834 2.19703 7.53518 2.1887 7.76853L2.38857 7.77567ZM2.51328 7.32323C2.57885 7.23382 2.67789 7.1841 2.82863 7.1841V6.9841C2.62738 6.9841 2.46242 7.05438 2.35199 7.20496L2.51328 7.32323ZM2.82863 7.1841C2.98006 7.1841 3.07533 7.21758 3.13354 7.27025L3.26773 7.12194C3.15794 7.02262 3.00521 6.9841 2.82863 6.9841V7.1841ZM3.13176 7.2686C3.18619 7.32031 3.22463 7.40651 3.22463 7.5441H3.42463C3.42463 7.36969 3.37508 7.22389 3.26951 7.1236L3.13176 7.2686ZM3.22463 7.5441C3.22463 7.67519 3.17282 7.80443 3.06178 7.92979L3.21149 8.0624C3.34845 7.90777 3.42463 7.73301 3.42463 7.5441H3.22463ZM3.06422 7.92713C2.99054 8.00449 2.86843 8.10816 2.68753 8.23401L2.80174 8.39819C2.98884 8.26803 3.12273 8.1557 3.20905 8.06506L3.06422 7.92713ZM2.68802 8.23366C2.35642 8.46139 2.12644 8.64379 2.01307 8.7746L2.1642 8.90559C2.25883 8.79641 2.46885 8.6268 2.80125 8.39853L2.68802 8.23366ZM2.01389 8.77366C1.80491 9.00877 1.70463 9.2847 1.70463 9.6001H1.90463C1.90463 9.3315 1.98836 9.10343 2.16338 8.90653L2.01389 8.77366ZM1.80463 9.7001H3.79663V9.5001H1.80463V9.7001ZM3.89663 9.6001V9.1881H3.69664V9.6001H3.89663ZM3.79663 9.0881H2.38863V9.2881H3.79663V9.0881ZM2.48002 9.22871C2.53128 9.11337 2.6848 8.95885 2.97558 8.76765L2.86569 8.60054C2.57247 8.79335 2.37399 8.97482 2.29725 9.14748L2.48002 9.22871ZM2.97638 8.76712C3.2563 8.57918 3.46508 8.42161 3.58574 8.29233L3.43953 8.15587C3.33619 8.26658 3.14497 8.41302 2.86489 8.60108L2.97638 8.76712ZM3.58689 8.29107C3.78461 8.07187 3.89263 7.8248 3.89263 7.5481H3.69264C3.69264 7.7674 3.60866 7.96833 3.43838 8.15712L3.58689 8.29107ZM3.89263 7.5481C3.89263 7.26581 3.79411 7.03429 3.5959 6.8541L3.46137 7.00209C3.61516 7.1419 3.69264 7.31838 3.69264 7.5481H3.89263ZM3.59507 6.85336C3.3941 6.67472 3.14131 6.5881 2.84463 6.5881V6.7881C3.09996 6.7881 3.30317 6.86148 3.4622 7.00284L3.59507 6.85336Z" fill="black"/>
<path d="M2.82863 11.4884C2.54863 11.4884 2.31663 11.5644 2.13663 11.7244C1.94463 11.8844 1.84063 12.1084 1.81663 12.3964H2.27663C2.29263 12.2244 2.34863 12.0964 2.44463 12.0124C2.53663 11.9284 2.66463 11.8884 2.83263 11.8884C2.99663 11.8884 3.12063 11.9244 3.20463 11.9964C3.28063 12.0684 3.32063 12.1724 3.32063 12.3124C3.32063 12.4524 3.27663 12.5604 3.19263 12.6324C3.10463 12.7044 2.97663 12.7404 2.80863 12.7404H2.60863V13.0924H2.80863C2.99263 13.0924 3.13263 13.1284 3.22863 13.2084C3.32463 13.2844 3.37663 13.4044 3.37663 13.5684C3.37663 13.7044 3.32863 13.8164 3.23663 13.9084C3.13263 14.0084 2.98863 14.0604 2.80863 14.0604C2.64463 14.0604 2.51263 14.0124 2.41263 13.9204C2.30063 13.8204 2.24463 13.6764 2.23663 13.4924H1.76063C1.78463 13.8124 1.89663 14.0604 2.09663 14.2284C2.27663 14.3804 2.51663 14.4564 2.81263 14.4564C3.12463 14.4564 3.37663 14.3684 3.56863 14.1964C3.75264 14.0284 3.84464 13.8124 3.84464 13.5484C3.84464 13.3804 3.79663 13.2404 3.70063 13.1324C3.61263 13.0284 3.48063 12.9524 3.31263 12.9004C3.62863 12.7964 3.78864 12.5884 3.78864 12.2764C3.78864 12.0284 3.70063 11.8364 3.52863 11.6964C3.35263 11.5564 3.11663 11.4884 2.82863 11.4884Z" fill="black"/>
<path d="M2.13663 11.7244L2.20069 11.8013L2.20307 11.7991L2.13663 11.7244ZM1.81663 12.3964L1.71698 12.3881L1.70795 12.4964H1.81663V12.3964ZM2.27663 12.3964V12.4964H2.36776L2.3762 12.4057L2.27663 12.3964ZM2.44463 12.0124L2.5105 12.0877L2.51206 12.0862L2.44463 12.0124ZM3.20463 11.9964L3.27349 11.9237L3.26971 11.9205L3.20463 11.9964ZM3.19263 12.6324L3.25598 12.7098L3.25771 12.7083L3.19263 12.6324ZM2.60863 12.7404V12.6404H2.50863V12.7404H2.60863ZM2.60863 13.0924H2.50863V13.1924H2.60863V13.0924ZM3.22863 13.2084L3.1646 13.2852L3.16656 13.2868L3.22863 13.2084ZM3.23663 13.9084L3.30596 13.9805L3.30735 13.9791L3.23663 13.9084ZM2.41263 13.9204L2.48035 13.8468L2.47924 13.8458L2.41263 13.9204ZM2.23663 13.4924L2.33654 13.488L2.33238 13.3924H2.23663V13.4924ZM1.76063 13.4924V13.3924H1.65285L1.66091 13.4999L1.76063 13.4924ZM2.09663 14.2284L2.16115 14.152L2.16095 14.1518L2.09663 14.2284ZM3.56863 14.1964L3.63536 14.2709L3.63606 14.2702L3.56863 14.1964ZM3.70063 13.1324L3.62427 13.197L3.62589 13.1988L3.70063 13.1324ZM3.31263 12.9004L3.28137 12.8054L2.98388 12.9033L3.28307 12.9959L3.31263 12.9004ZM3.52863 11.6964L3.59177 11.6188L3.59089 11.6181L3.52863 11.6964ZM2.82863 11.3884C2.52978 11.3884 2.27232 11.47 2.0702 11.6496L2.20307 11.7991C2.36095 11.6588 2.56749 11.5884 2.82863 11.5884V11.3884ZM2.07262 11.6476C1.85605 11.828 1.74273 12.0791 1.71698 12.3881L1.91629 12.4047C1.93854 12.1377 2.03322 11.9407 2.20065 11.8012L2.07262 11.6476ZM1.81663 12.4964H2.27663V12.2964H1.81663V12.4964ZM2.3762 12.4057C2.39069 12.25 2.43975 12.1495 2.51049 12.0876L2.37878 11.9371C2.25752 12.0432 2.19458 12.1988 2.17706 12.3871L2.3762 12.4057ZM2.51206 12.0862C2.57959 12.0246 2.67997 11.9884 2.83263 11.9884V11.7884C2.6493 11.7884 2.49368 11.8322 2.37721 11.9385L2.51206 12.0862ZM2.83263 11.9884C2.98395 11.9884 3.08067 12.0218 3.13956 12.0723L3.26971 11.9205C3.1606 11.8269 3.00932 11.7884 2.83263 11.7884V11.9884ZM3.13586 12.069C3.18691 12.1174 3.22063 12.1921 3.22063 12.3124H3.42063C3.42063 12.1527 3.37436 12.0194 3.27341 11.9238L3.13586 12.069ZM3.22063 12.3124C3.22063 12.4308 3.18423 12.5079 3.12756 12.5565L3.25771 12.7083C3.36904 12.6129 3.42063 12.474 3.42063 12.3124H3.22063ZM3.12931 12.555C3.06597 12.6068 2.9642 12.6404 2.80863 12.6404V12.8404C2.98907 12.8404 3.1433 12.802 3.25596 12.7098L3.12931 12.555ZM2.80863 12.6404H2.60863V12.8404H2.80863V12.6404ZM2.50863 12.7404V13.0924H2.70863V12.7404H2.50863ZM2.60863 13.1924H2.80863V12.9924H2.60863V13.1924ZM2.80863 13.1924C2.98223 13.1924 3.09453 13.2268 3.16462 13.2852L3.29265 13.1316C3.17074 13.03 3.00304 12.9924 2.80863 12.9924V13.1924ZM3.16656 13.2868C3.2325 13.339 3.27663 13.4262 3.27663 13.5684H3.47663C3.47663 13.3826 3.41677 13.2298 3.29071 13.13L3.16656 13.2868ZM3.27663 13.5684C3.27663 13.6777 3.23932 13.7643 3.16592 13.8377L3.30735 13.9791C3.41795 13.8685 3.47663 13.7311 3.47663 13.5684H3.27663ZM3.16732 13.8363C3.08592 13.9146 2.96888 13.9604 2.80863 13.9604V14.1604C3.00839 14.1604 3.17935 14.1022 3.30595 13.9805L3.16732 13.8363ZM2.80863 13.9604C2.66529 13.9604 2.55886 13.919 2.48034 13.8468L2.34493 13.994C2.46641 14.1057 2.62398 14.1604 2.80863 14.1604V13.9604ZM2.47924 13.8458C2.39313 13.7689 2.34375 13.654 2.33654 13.488L2.13673 13.4967C2.14552 13.6988 2.20814 13.8719 2.34603 13.995L2.47924 13.8458ZM2.23663 13.3924H1.76063V13.5924H2.23663V13.3924ZM1.66091 13.4999C1.6864 13.8397 1.80685 14.1156 2.03232 14.305L2.16095 14.1518C1.98642 14.0052 1.88287 13.7851 1.86035 13.4849L1.66091 13.4999ZM2.03212 14.3048C2.23453 14.4757 2.49944 14.5564 2.81263 14.5564V14.3564C2.53383 14.3564 2.31874 14.2851 2.16115 14.152L2.03212 14.3048ZM2.81263 14.5564C3.14437 14.5564 3.42168 14.4623 3.63536 14.2709L3.50191 14.1219C3.33159 14.2745 3.1049 14.3564 2.81263 14.3564V14.5564ZM3.63606 14.2702C3.84217 14.0821 3.94463 13.8386 3.94463 13.5484H3.74464C3.74464 13.7862 3.6631 13.9747 3.50121 14.1225L3.63606 14.2702ZM3.94463 13.5484C3.94463 13.3605 3.89045 13.1954 3.77538 13.066L3.62589 13.1988C3.70282 13.2854 3.74464 13.4003 3.74464 13.5484H3.94463ZM3.77697 13.0678C3.67258 12.9444 3.52129 12.8603 3.3422 12.8049L3.28307 12.9959C3.43998 13.0445 3.55269 13.1124 3.6243 13.197L3.77697 13.0678ZM3.3439 12.9954C3.51579 12.9388 3.65387 12.851 3.74858 12.7271C3.84376 12.6026 3.88863 12.4501 3.88863 12.2764H3.68864C3.68864 12.4147 3.65351 12.5222 3.58969 12.6057C3.5254 12.6898 3.42548 12.758 3.28137 12.8054L3.3439 12.9954ZM3.88863 12.2764C3.88863 12.0014 3.78937 11.7797 3.59176 11.6188L3.46551 11.7739C3.6119 11.8931 3.68864 12.0554 3.68864 12.2764H3.88863ZM3.59089 11.6181C3.39214 11.46 3.13181 11.3884 2.82863 11.3884V11.5884C3.10146 11.5884 3.31313 11.6527 3.46638 11.7747L3.59089 11.6181Z" fill="black"/>
</svg>
