<svg width="29" height="11" viewBox="0 0 29 11" fill="none" xmlns="http://www.w3.org/2000/svg">
<path d="M0.471398 0.00399935V0.998H3.9994V10H5.1334V0.998H8.6614V0.00399935H0.471398ZM12.7514 2.566C11.7014 2.566 10.8754 2.944 10.2594 3.7C9.64337 4.414 9.34937 5.31 9.34937 6.374C9.34937 7.55 9.65737 8.474 10.3014 9.174C10.9174 9.846 11.7574 10.196 12.7934 10.196C13.7314 10.196 14.5014 9.916 15.1034 9.384C15.5934 8.936 15.9154 8.376 16.0834 7.676H14.9634C14.7814 8.18 14.5434 8.558 14.2354 8.81C13.8714 9.104 13.3814 9.258 12.7934 9.258C12.1074 9.258 11.5614 9.034 11.1694 8.586C10.7774 8.138 10.5674 7.508 10.5114 6.696H16.2234C16.1954 5.436 15.9154 4.442 15.3834 3.742C14.7954 2.958 13.9134 2.566 12.7514 2.566ZM12.7794 3.504C14.1514 3.504 14.9214 4.274 15.0614 5.828H10.5394C10.6094 5.114 10.8334 4.554 11.2254 4.134C11.6174 3.714 12.1354 3.504 12.7794 3.504ZM17.045 2.762L19.607 6.164L16.737 10H18.067L20.237 6.99L22.393 10H23.723L20.853 6.164L23.415 2.762H22.099L20.237 5.338L18.361 2.762H17.045ZM26.59 0.424L25.484 0.886V2.762H24.028V3.7H25.484V8.306C25.484 8.852 25.596 9.258 25.834 9.538C26.086 9.846 26.52 10 27.108 10H28.2V9.062H27.276C27.024 9.062 26.842 8.992 26.744 8.88C26.632 8.768 26.59 8.572 26.59 8.306V3.7H28.382V2.762H26.59V0.424Z" fill="black"/>
</svg>
